# xmcd
#
# Track frame offsets:
#	150
#	18322
#	34204
#	51126
#	67582
#	77745
#	95559
#	112975
#	129231
#	146825
#	162070
#	177076
#	193095
#	209637
#	224692
#	243822
#
# Disc length: 3411 seconds
#
# Revision: 1
# Processed by: cddbd v1.5.2PL0 Copyright (c) Steve Scherf et al.
# Submitted via: audiograbber 1.83.01
#
DISCID=dc0d5110
DTITLE=Various Artist - My Country Vol 1 - CD2
DYEAR=2010
DGENRE=Country
TTITLE0=Alan Jackson - Where I Came From
TTITLE1=Brad Paisley - Mud On The Tires
TTITLE2=Gloriana - Wild At Heart
TTITLE3=Heidi Newfield - Johnny and June
TTITLE4=George Strait - Honk If You Honky Tonk
TTITLE5=Bomshell - 19 and Crazy
TTITLE6=Blake Shelton - Home
TTITLE7=Brooks and Dunn - Cowgirls Don't Cry
TTITLE8=Billy Currington - People Are Crazy
TTITLE9=Randy Travis - Three Wooden Crosses
TTITLE10=Gretchen Wilson - Here For The Party
TTITLE11=The Wreckers - Leave The Pieces
TTITLE12=LeAnn Rimes - Probably Wouldn't Be This Way
TTITLE13=Jo Dee Messina - My Give A Damn's Busted
TTITLE14=Travis Triit - Tougher Than The Rest
TTITLE15=Clay Walker and Freddy Fender - Before The Next Teardrop Falls
EXTD=
EXTT0=
EXTT1=
EXTT2=
EXTT3=
EXTT4=
EXTT5=
EXTT6=
EXTT7=
EXTT8=
EXTT9=
EXTT10=
EXTT11=
EXTT12=
EXTT13=
EXTT14=
EXTT15=
PLAYORDER=
